<svg xmlns="http://www.w3.org/2000/svg" xmlns:xlink="http://www.w3.org/1999/xlink" version="1.1" width="256" height="256" viewBox="0 0 256 256" xml:space="preserve" 
>
<g
style="stroke: none; stroke-width: 0; stroke-dasharray: none; stroke-linecap: butt; stroke-linejoin: miter; stroke-miterlimit: 10; fill: none; fill-rule: nonzero; opacity: 1;" transform="translate(1.4065934065934016 1.4065934065934016) scale(2.81 2.81)" >
	<path d="M 38.271 29 c -0.146 0 -0.292 -0.031 -0.432 -0.099 c -1.874 -0.899 -3.695 -0.898 -5.567 0 c -0.499 0.24 -1.095 0.029 -1.334 -0.469 c -0.239 -0.498 -0.029 -1.095 0.469 -1.334 c 2.421 -1.162 4.876 -1.162 7.297 0 c 0.498 0.239 0.708 0.836 0.469 1.334 C 39 28.791 38.643 29 38.271 29 z" style="stroke: none; stroke-width: 1; stroke-dasharray: none; stroke-linecap: butt; stroke-linejoin: miter; stroke-miterlimit: 10; fill: rgb(0,0,0); fill-rule: nonzero; opacity: 1;" transform=" matrix(1 0 0 1 0 0) " stroke-linecap="round" />
	<path d="M 50.497 29 c -0.145 0 -0.292 -0.031 -0.432 -0.099 c -1.874 -0.898 -3.694 -0.898 -5.567 0 c -0.499 0.24 -1.095 0.029 -1.334 -0.469 c -0.239 -0.498 -0.029 -1.095 0.469 -1.334 c 2.421 -1.162 4.875 -1.162 7.297 0 c 0.498 0.239 0.708 0.836 0.469 1.334 C 51.228 28.791 50.87 29 50.497 29 z" style="stroke: none; stroke-width: 1; stroke-dasharray: none; stroke-linecap: butt; stroke-linejoin: miter; stroke-miterlimit: 10; fill: rgb(0,0,0); fill-rule: nonzero; opacity: 1;" transform=" matrix(1 0 0 1 0 0) " stroke-linecap="round" />
	<path d="M 41.437 43.34 c -1.659 0 -3.315 -0.783 -4.922 -2.35 c -0.396 -0.386 -0.404 -1.019 -0.019 -1.414 c 0.387 -0.396 1.019 -0.404 1.414 -0.019 c 2.436 2.373 4.616 2.374 7.072 -0.002 c 0.396 -0.383 1.029 -0.374 1.414 0.023 c 0.384 0.396 0.374 1.03 -0.023 1.414 C 44.755 42.558 43.094 43.34 41.437 43.34 z" style="stroke: none; stroke-width: 1; stroke-dasharray: none; stroke-linecap: butt; stroke-linejoin: miter; stroke-miterlimit: 10; fill: rgb(0,0,0); fill-rule: nonzero; opacity: 1;" transform=" matrix(1 0 0 1 0 0) " stroke-linecap="round" />
	<path d="M 39.056 81.752 c -1.867 0 -3.386 -1.519 -3.386 -3.386 s 1.519 -3.386 3.386 -3.386 s 3.385 1.519 3.385 3.386 S 40.922 81.752 39.056 81.752 z M 39.056 76.98 c -0.764 0 -1.386 0.622 -1.386 1.386 s 0.622 1.386 1.386 1.386 c 0.764 0 1.385 -0.622 1.385 -1.386 S 39.819 76.98 39.056 76.98 z" style="stroke: none; stroke-width: 1; stroke-dasharray: none; stroke-linecap: butt; stroke-linejoin: miter; stroke-miterlimit: 10; fill: rgb(0,0,0); fill-rule: nonzero; opacity: 1;" transform=" matrix(1 0 0 1 0 0) " stroke-linecap="round" />
	<path d="M 76.901 81.271 l -6.887 -17.542 c -0.091 -4.387 -3.254 -8.116 -7.588 -8.908 l -1.015 -0.185 V 38.409 c 1.512 -0.129 2.707 -1.386 2.707 -2.931 v -8.244 c 0 -1.545 -1.195 -2.802 -2.707 -2.931 v -4.336 C 61.412 8.958 52.455 0 41.444 0 c -11.01 0 -19.968 8.958 -19.968 19.968 v 4.336 c -1.512 0.129 -2.707 1.386 -2.707 2.931 v 8.244 c 0 1.545 1.195 2.802 2.707 2.931 v 16.227 l -1.015 0.185 c -4.398 0.804 -7.59 4.632 -7.59 9.103 v 17.364 c 0 1.919 1.561 3.479 3.479 3.479 h 13.731 v 1.554 c 0 2.028 1.65 3.679 3.678 3.679 h 24.441 c 1.855 0 3.378 -1.385 3.628 -3.173 c 0.766 -0.093 1.411 -0.565 1.744 -1.228 l 10.275 0.105 c 0.011 0 0.021 0 0.032 0 c 1.068 0 2.066 -0.523 2.673 -1.404 C 77.166 83.408 77.296 82.277 76.901 81.271 z M 68.017 63.924 v 0.189 l 0.108 0.274 l -6.301 5.678 c -0.272 -1.762 -1.785 -3.12 -3.622 -3.12 h -8.908 c 2.565 -3.312 4.627 -7.126 6.16 -11.366 l 6.615 1.209 C 65.515 57.419 68.017 60.42 68.017 63.924 z M 61.82 84.591 c 0 0.146 -0.118 0.264 -0.264 0.264 h -4.154 c -0.738 0 -1.36 -0.528 -1.479 -1.257 l -0.68 -4.157 c -0.071 -0.434 0.051 -0.875 0.336 -1.211 s 0.702 -0.528 1.143 -0.528 h 4.834 c 0.146 0 0.264 0.118 0.264 0.264 V 84.591 z M 36.175 66.945 c -2.854 -3.363 -5.129 -7.336 -6.779 -11.826 c 2.629 -0.949 4.476 -3.383 4.644 -6.219 c 1.333 0.888 2.776 1.633 4.321 2.191 c 0.994 0.359 2.039 0.539 3.084 0.539 c 1.044 0 2.089 -0.18 3.084 -0.539 c 1.542 -0.557 2.978 -1.302 4.32 -2.193 c 0.168 2.837 2.014 5.271 4.644 6.221 c -1.65 4.489 -3.924 8.462 -6.778 11.826 H 36.175 z M 26.243 24.258 C 36.411 22.812 42.862 20.545 46.858 17 c 2.852 3.235 5.55 5.346 9.754 7.654 l -0.741 8.866 c -0.176 2.098 -0.706 4.134 -1.577 6.05 c -0.459 1.009 -1.014 1.983 -1.649 2.895 c -0.258 0.37 -0.539 0.723 -0.824 1.073 c -0.137 0.009 -0.274 0.021 -0.414 0.021 h -6.006 c -0.552 0 -1 0.448 -1 1 s 0.448 1 1 1 h 4.483 c -1.765 1.597 -3.781 2.838 -6.035 3.653 c -1.551 0.561 -3.259 0.561 -4.809 0 c -6.708 -2.424 -11.428 -8.583 -12.022 -15.692 L 26.243 24.258 z M 56.874 38.434 h 0.568 c -0.26 1.571 -1.116 2.938 -2.331 3.866 c 0.365 -0.619 0.707 -1.251 1.003 -1.902 C 56.406 39.756 56.652 39.098 56.874 38.434 z M 54.983 53.461 c -2.406 -0.44 -4.153 -2.536 -4.153 -4.982 v -1.09 c 0.364 -0.313 0.734 -0.617 1.078 -0.958 c 0.324 -0.32 0.626 -0.664 0.929 -1.006 c 3.366 -0.601 6.013 -3.278 6.575 -6.657 V 54.27 L 54.983 53.461 z M 62.119 27.234 v 8.244 c 0 0.527 -0.429 0.956 -0.956 0.956 h -3.737 c 0.202 -0.904 0.36 -1.818 0.438 -2.748 l 0.62 -7.408 h 2.68 C 61.69 26.278 62.119 26.707 62.119 27.234 z M 41.444 2 c 9.907 0 17.968 8.061 17.968 17.968 v 4.311 H 58.65 l 0.009 -0.109 c 0.033 -0.397 -0.172 -0.776 -0.523 -0.965 c -4.64 -2.487 -7.372 -4.658 -10.439 -8.296 c -0.182 -0.215 -0.445 -0.344 -0.726 -0.354 c -0.3 -0.007 -0.555 0.097 -0.752 0.297 c -3.696 3.752 -10.229 6.083 -21.185 7.555 c -0.528 0.071 -0.908 0.543 -0.863 1.075 l 0.067 0.797 h -0.761 v -4.311 C 23.477 10.061 31.537 2 41.444 2 z M 20.77 35.478 v -8.244 c 0 -0.527 0.429 -0.956 0.956 -0.956 h 2.68 l 0.62 7.408 c 0.078 0.933 0.225 1.85 0.427 2.748 h -3.727 C 21.198 36.434 20.77 36.005 20.77 35.478 z M 23.477 38.434 h 2.542 c 1.173 3.489 3.266 6.595 6.04 8.977 v 1.067 c 0 2.446 -1.747 4.542 -4.154 4.982 l -4.428 0.809 V 38.434 z M 14.872 81.288 V 67.177 l 6.884 6.203 c 1.347 1.214 2.12 2.951 2.12 4.765 v 4.623 h -7.525 C 15.536 82.768 14.872 82.104 14.872 81.288 z M 30.082 70.624 v 12.144 h -4.206 v -4.623 c 0 -2.379 -1.014 -4.657 -2.781 -6.251 l -8.223 -7.409 v -0.561 c 0 -3.505 2.502 -6.505 5.949 -7.136 l 6.614 -1.209 c 1.535 4.247 3.601 8.067 6.171 11.382 C 31.651 67.043 30.082 68.648 30.082 70.624 z M 58.201 88 H 33.76 c -0.925 0 -1.678 -0.753 -1.678 -1.679 V 70.624 c 0 -0.926 0.753 -1.679 1.678 -1.679 h 24.441 c 0.926 0 1.679 0.753 1.679 1.679 v 5.077 h -3.157 c -1.028 0 -2.001 0.449 -2.667 1.233 c -0.665 0.783 -0.952 1.815 -0.786 2.829 l 0.68 4.156 c 0.278 1.7 1.73 2.935 3.453 2.935 h 2.383 C 59.561 87.518 58.939 88 58.201 88 z M 74.906 83.164 c -0.239 0.347 -0.6 0.549 -1.039 0.539 L 63.82 83.601 v -4.636 h 1.4 c 0.553 0 1 -0.447 1 -1 s -0.447 -1 -1 -1 h -1.644 c -0.325 -0.653 -0.95 -1.123 -1.697 -1.231 v -3.027 l 7.025 -6.33 l 6.135 15.626 C 75.193 82.394 75.145 82.817 74.906 83.164 z" style="stroke: none; stroke-width: 1; stroke-dasharray: none; stroke-linecap: butt; stroke-linejoin: miter; stroke-miterlimit: 10; fill: rgb(0,0,0); fill-rule: nonzero; opacity: 1;" transform=" matrix(1 0 0 1 0 0) " stroke-linecap="round" />
</g>
</svg>