<?xml version="1.0" encoding="UTF-8"?>
<svg width="700pt" height="700pt" version="1.1" viewBox="0 0 700 700" xmlns="http://www.w3.org/2000/svg">
 <g>
  <path d="m337.73 323.64c3.9375-6.8086 3.5703-15.297-1.0508-23.309l-98.246-170.17c-4.6016-7.9805-11.762-12.547-19.637-12.547s-15.031 4.5859-19.652 12.566l-98.246 170.17c-4.6016 7.9805-4.9883 16.449-1.0664 23.293 3.9531 6.8242 11.48 10.727 20.684 10.727h196.51c9.2422-0.019531 16.77-3.9219 20.707-10.73zm-227.34-6.1055c-1.6992-2.9414-1.3125-7 1.0664-11.113l98.246-170.17c2.3789-4.1133 5.7031-6.4766 9.1172-6.4766 3.3945 0 6.7188 2.3633 9.1016 6.4766l98.246 170.17c2.3789 4.1289 2.7656 8.1914 1.0508 11.129-1.6992 2.957-5.3906 4.6562-10.148 4.6562h-196.53c-4.7422-0.019532-8.4531-1.7148-10.148-4.6719z"/>
  <path d="m218.8 269.9c-10.395 0-18.848 8.4531-18.848 18.848 0 10.379 8.4531 18.828 18.848 18.828 10.379 0 18.828-8.4531 18.828-18.828 0.003906-10.395-8.4492-18.848-18.828-18.848zm0 25.516c-3.6914 0-6.6836-2.9922-6.6836-6.668s2.9922-6.6836 6.6836-6.6836c3.6758 0 6.668 2.9922 6.668 6.6836 0 3.6758-2.9922 6.668-6.668 6.668z"/>
  <path d="m231.54 172.74h-25.516c-1.6445 0-3.2188 0.66406-4.3594 1.8359-1.1367 1.1719-1.7656 2.7656-1.7344 4.3906l2.0117 79.238c0.085938 3.2891 2.7812 5.9336 6.0898 5.9336h21.488c3.2891 0 6.0039-2.625 6.0898-5.9336l2.0117-79.238c0.035156-1.6445-0.57812-3.2188-1.7344-4.3906-1.1289-1.1719-2.7031-1.8359-4.3477-1.8359zm-7.9297 79.223h-9.6406l-1.7148-67.078h13.055z"/>
  <path d="m430.55 345.54c14.352 0 25.566-17.449 25.566-39.727s-11.234-39.742-25.566-39.742-25.586 17.465-25.586 39.742c0.003906 22.277 11.238 39.727 25.586 39.727zm0-67.305c6.3359 0 13.422 11.797 13.422 27.578 0 15.766-7.0859 27.562-13.422 27.562-6.3359 0-13.422-11.797-13.422-27.562 0-15.785 7.0898-27.578 13.422-27.578z"/>
  <path d="m596.77 58.273h-298.58c-11.391 0-20.684 9.2734-20.684 20.684v94.551l12.164 21.07-0.003906-115.62c0-4.707 3.8164-8.5234 8.5039-8.5234h238.07l-140.73 28.578c-10.746 2.1875-19.18 12.477-19.18 23.449v328.23h-78.137c-4.6914 0-8.5039-3.8164-8.5039-8.5039v-95.672h-12.164v95.672c0 11.391 9.2734 20.684 20.684 20.684h78.137v20.684c0 5.6523 2.3438 10.832 6.4219 14.191 3.1484 2.5898 7.1562 3.9727 11.359 3.9727 1.2422 0 2.5039-0.12109 3.7617-0.36719l200.02-38.711c2.8008-0.54297 4.9531-2.8867 4.9531-5.8438l0.003906-392.44c0-3.375-2.7305-6.0898-6.0938-6.0898zm-6.0703 393.51-195.11 37.641c-1.9766 0.35156-3.7969 0-5.0938-1.0508-1.2969-1.0664-2.0117-2.7812-2.0117-4.8125l0.003906-361.07c0-5.1289 4.4102-10.535 9.4336-11.531l192.78-39.129z"/>
 </g>
</svg>
