<?xml version="1.0" encoding="UTF-8"?>
<svg width="700pt" height="700pt" version="1.1" viewBox="0 0 700 700" xmlns="http://www.w3.org/2000/svg">
 <path d="m281.03 530.16c-0.28125 0-0.55859-0.015624-0.85938-0.050781-1.2773-0.19141-129.22-19.688-123.06-126.19 2.3086-40.109 12.793-77.543 22.941-113.73 15.996-57.051 29.801-106.33 9.0117-152.57-0.94141-2.0664-0.64453-4.5 0.77344-6.2852 1.418-1.7852 3.7109-2.6094 5.9492-2.1719 2.4336 0.47266 57.172 12.336 86.781 91.859 16.59-29.504 55.684-113.43 8.6641-181.67-1.5039-2.2031-1.418-5.1289 0.24609-7.2266 1.6641-2.082 4.4961-2.8359 6.9648-1.8906 3.9727 1.5586 97.422 38.887 112.51 134.38 2.7109 17.203 3.7812 34.336 4.8125 50.891 0.82422 13.441 1.6445 26.531 3.3438 38.395 1.9062-31.973 11.305-74.863 44.871-100.08 1.8555-1.3984 4.375-1.6094 6.4414-0.52344 2.0781 1.0508 3.375 3.2031 3.3047 5.5469-0.015624 0.73438-1.5039 75.285 30.379 122.15 22.328 32.863 50.191 82.602 34.336 135.07-13.703 45.43-57.906 83.668-131.37 113.64-2.8711 1.1719-6.125 0.015625-7.6133-2.6602-1.5039-2.6758-0.75391-6.0898 1.75-7.8906 1.8203-1.3281 44.484-33.215 17.762-86.625-18.898-37.781-24.395-61.809-25.359-77.508-8.4531 13.668-17.078 34.895-8.6992 56.891 0.99609 2.5742 0.085938 5.5117-2.1719 7.1211-2.2734 1.6094-5.3359 1.4688-7.4531-0.33203-0.62891-0.52344-56.926-49.297-45.902-118.7-10.711 11.531-23.012 30.152-18.848 52.047 8.9062 46.727 4.8125 73.691-13.703 90.16-1.7344 1.5234-4.1836 1.9766-6.3359 1.1016-2.1523-0.89062-3.6055-2.9062-3.7812-5.2344-0.78906-11.359-4.3047-37.66-12.059-54.109-0.98047 14.98-3.4492 36.469-9.7305 50.297-8.1914 18.008-9.9219 57.137 20.23 85.383 1.9258 1.8203 2.4844 4.6719 1.3281 7.0703-1.0078 2.1523-3.1406 3.4492-5.4531 3.4492zm-76-384.91c15.207 46.602 1.3477 96.094-13.266 148.23-9.9766 35.578-20.281 72.363-22.523 111.16-4.1836 72.469 62.176 100.19 94.938 109.41-21.594-30.449-18.848-65.977-10.289-84.805 9.1523-20.141 9.2734-61.863 9.2734-62.281 0-2.2734 1.2617-4.3398 3.2734-5.4062 2.0117-1.0312 4.4258-0.875 6.2812 0.40234 15.207 10.641 21.805 41.09 24.484 60.008 7.0859-14.281 7.4375-35.945 1.3984-67.621-8.5039-44.676 36.031-75.582 37.922-76.895 2.1719-1.4531 5.0234-1.3984 7.0859 0.19141 2.082 1.5742 2.9219 4.2891 2.1016 6.7734-16.66 49.961 6.9141 90.02 23.555 110.41-0.98047-34.824 25.918-62.246 27.281-63.613 1.8711-1.8555 4.7422-2.293 7.0703-1.1016 2.3438 1.1914 3.6562 3.7969 3.2188 6.3867-1.8008 10.867-5.5664 33.441 22.996 90.578 17.516 35.051 8.9766 62.613-2.1172 80.184 54.793-26.477 88.078-58.258 99.066-94.711 14.332-47.512-11.828-93.922-32.777-124.7-25.934-38.133-31.254-91.211-32.27-115.85-40.371 41.93-29.488 120.56-29.363 121.4 0.40234 2.7812-1.1367 5.4766-3.7461 6.5117-2.5742 1.0859-5.582 0.17578-7.2109-2.082-13.984-19.582-15.855-49.684-17.832-81.551-1.0156-16.273-2.0664-33.129-4.6914-49.754-10.098-64.016-60.023-100.61-87.203-116.09 42.387 87.203-24.953 187.27-25.691 188.37-1.3281 1.9062-3.6562 2.9219-5.9336 2.5547-2.3086-0.35156-4.1992-1.9766-4.8984-4.1992-18.859-60.816-52.406-83.738-70.133-91.895z"/>
</svg>
