<?xml version="1.0" encoding="UTF-8"?>
<svg width="700pt" height="700pt" version="1.1" viewBox="0 0 700 700" xmlns="http://www.w3.org/2000/svg" xmlns:xlink="http://www.w3.org/1999/xlink">
 <defs>
  <symbol id="h" overflow="visible">
   <path d="m14.656-0.875c-0.76172 0.39844-1.5547 0.69531-2.375 0.89062-0.8125 0.19531-1.6641 0.29688-2.5469 0.29688-2.6562 0-4.7617-0.73828-6.3125-2.2188-1.5547-1.4883-2.3281-3.5039-2.3281-6.0469 0-2.5508 0.77344-4.5664 2.3281-6.0469 1.5508-1.4883 3.6562-2.2344 6.3125-2.2344 0.88281 0 1.7344 0.10156 2.5469 0.29688 0.82031 0.19922 1.6133 0.49609 2.375 0.89062v3.2969c-0.76172-0.51953-1.5117-0.89844-2.25-1.1406-0.74219-0.23828-1.5234-0.35938-2.3438-0.35938-1.4688 0-2.625 0.46875-3.4688 1.4062-0.83594 0.9375-1.25 2.2344-1.25 3.8906 0 1.6484 0.41406 2.9375 1.25 3.875 0.84375 0.9375 2 1.4062 3.4688 1.4062 0.82031 0 1.6016-0.11719 2.3438-0.35938 0.73828-0.23828 1.4883-0.61719 2.25-1.1406z"/>
  </symbol>
  <symbol id="c" overflow="visible">
   <path d="m10.719-8.7031c-0.33594-0.15625-0.66797-0.26953-1-0.34375-0.32422-0.082031-0.65625-0.125-1-0.125-0.98047 0-1.7344 0.32031-2.2656 0.95312-0.53125 0.625-0.79688 1.5273-0.79688 2.7031v5.5156h-3.8125v-11.969h3.8125v1.9688c0.48828-0.78125 1.0508-1.3477 1.6875-1.7031 0.64453-0.36328 1.4102-0.54688 2.2969-0.54688 0.13281 0 0.27344 0.007812 0.42188 0.015625 0.14453 0.011719 0.36328 0.03125 0.65625 0.0625z"/>
  </symbol>
  <symbol id="a" overflow="visible">
   <path d="m13.781-6.0156v1.0938h-8.9375c0.09375 0.89844 0.41406 1.5703 0.96875 2.0156 0.55078 0.44922 1.3281 0.67188 2.3281 0.67188 0.80078 0 1.625-0.11719 2.4688-0.35938 0.84375-0.23828 1.7109-0.59766 2.6094-1.0781v2.9531c-0.90625 0.33594-1.8125 0.58984-2.7188 0.76562s-1.8125 0.26562-2.7188 0.26562c-2.1562 0-3.8398-0.54688-5.0469-1.6406-1.1992-1.1016-1.7969-2.6484-1.7969-4.6406 0-1.9453 0.58594-3.4766 1.7656-4.5938 1.1758-1.125 2.8008-1.6875 4.875-1.6875 1.875 0 3.375 0.57031 4.5 1.7031 1.1328 1.125 1.7031 2.6367 1.7031 4.5312zm-3.9375-1.2656c0-0.72656-0.21484-1.3125-0.64062-1.75-0.41797-0.44531-0.96875-0.67188-1.6562-0.67188-0.74219 0-1.3438 0.21094-1.8125 0.625-0.46094 0.41797-0.74609 1.0156-0.85938 1.7969z"/>
  </symbol>
  <symbol id="m" overflow="visible">
   <path d="m7.2031-5.3906c-0.80469 0-1.4062 0.13672-1.8125 0.40625-0.39844 0.27344-0.59375 0.67188-0.59375 1.2031 0 0.48047 0.16016 0.85938 0.48438 1.1406 0.32031 0.27344 0.77344 0.40625 1.3594 0.40625 0.71875 0 1.3203-0.25391 1.8125-0.76562 0.48828-0.51953 0.73438-1.1719 0.73438-1.9531v-0.4375zm5.8438-1.4375v6.8281h-3.8594v-1.7656c-0.51172 0.71875-1.0898 1.2461-1.7344 1.5781-0.63672 0.33203-1.418 0.5-2.3438 0.5-1.2422 0-2.2461-0.35938-3.0156-1.0781-0.77344-0.72656-1.1562-1.6719-1.1562-2.8281 0-1.3945 0.47656-2.4219 1.4375-3.0781 0.96875-0.65625 2.4883-0.98438 4.5625-0.98438h2.25v-0.29688c0-0.60156-0.24219-1.0469-0.71875-1.3281-0.48047-0.28125-1.2266-0.42188-2.2344-0.42188-0.8125 0-1.5742 0.085937-2.2812 0.25-0.71094 0.15625-1.3672 0.40234-1.9688 0.73438v-2.9219c0.82031-0.19531 1.6445-0.34766 2.4688-0.45312 0.82031-0.10156 1.6484-0.15625 2.4844-0.15625 2.1562 0 3.7109 0.42969 4.6719 1.2812 0.95703 0.84375 1.4375 2.2266 1.4375 4.1406z"/>
  </symbol>
  <symbol id="b" overflow="visible">
   <path d="m6.0156-15.359v3.3906h3.9375v2.7344h-3.9375v5.0781c0 0.55469 0.10938 0.92969 0.32812 1.125 0.21875 0.19922 0.65625 0.29688 1.3125 0.29688h1.9688v2.7344h-3.2812c-1.5117 0-2.5859-0.3125-3.2188-0.9375-0.625-0.63281-0.9375-1.707-0.9375-3.2188v-5.0781h-1.9062v-2.7344h1.9062v-3.3906z"/>
  </symbol>
  <symbol id="l" overflow="visible">
   <path d="m9.9688-10.219v-6.4062h3.8594v16.625h-3.8594v-1.7344c-0.52344 0.71094-1.1016 1.2305-1.7344 1.5625-0.63672 0.32031-1.3711 0.48438-2.2031 0.48438-1.4688 0-2.6797-0.58203-3.625-1.75-0.94922-1.1758-1.4219-2.6875-1.4219-4.5312s0.47266-3.3477 1.4219-4.5156c0.94531-1.1758 2.1562-1.7656 3.625-1.7656 0.83203 0 1.5664 0.16797 2.2031 0.5 0.63281 0.32422 1.2109 0.83594 1.7344 1.5312zm-2.5156 7.75c0.82031 0 1.4453-0.29688 1.875-0.89062 0.42578-0.60156 0.64062-1.4727 0.64062-2.6094 0-1.1445-0.21484-2.0156-0.64062-2.6094-0.42969-0.59375-1.0547-0.89062-1.875-0.89062-0.8125 0-1.4336 0.29688-1.8594 0.89062-0.42969 0.59375-0.64062 1.4648-0.64062 2.6094 0 1.1367 0.21094 2.0078 0.64062 2.6094 0.42578 0.59375 1.0469 0.89062 1.8594 0.89062z"/>
  </symbol>
  <symbol id="k" overflow="visible">
   <path d="m8.2031-2.4688c0.82031 0 1.4453-0.29688 1.875-0.89062 0.42578-0.60156 0.64062-1.4727 0.64062-2.6094 0-1.1445-0.21484-2.0156-0.64062-2.6094-0.42969-0.59375-1.0547-0.89062-1.875-0.89062-0.82422 0-1.4531 0.30469-1.8906 0.90625-0.4375 0.59375-0.65625 1.4609-0.65625 2.5938 0 1.1367 0.21875 2.0078 0.65625 2.6094 0.4375 0.59375 1.0664 0.89062 1.8906 0.89062zm-2.5469-7.75c0.53125-0.69531 1.1133-1.207 1.75-1.5312 0.64453-0.33203 1.3828-0.5 2.2188-0.5 1.4688 0 2.6758 0.58984 3.625 1.7656 0.94531 1.168 1.4219 2.6719 1.4219 4.5156s-0.47656 3.3555-1.4219 4.5312c-0.94922 1.168-2.1562 1.75-3.625 1.75-0.83594 0-1.5742-0.16797-2.2188-0.5-0.63672-0.33203-1.2188-0.84766-1.75-1.5469v1.7344h-3.8125v-16.625h3.8125z"/>
  </symbol>
  <symbol id="j" overflow="visible">
   <path d="m0.26562-11.969h3.8281l3.2188 8.125 2.7344-8.125h3.8125l-5.0312 13.094c-0.5 1.332-1.0898 2.2656-1.7656 2.7969-0.66797 0.53125-1.5547 0.79688-2.6562 0.79688h-2.2188v-2.5h1.2031c0.64453 0 1.1133-0.10547 1.4062-0.3125 0.30078-0.21094 0.53125-0.57812 0.6875-1.1094l0.10938-0.34375z"/>
  </symbol>
  <symbol id="i" overflow="visible">
   <path d="m0.65625-15.953h3.9375l2.75 11.594 2.7344-11.594h3.9688l2.7344 11.594 2.75-11.594h3.9062l-3.75 15.953h-4.75l-2.8906-12.125-2.8594 12.125h-4.75z"/>
  </symbol>
  <symbol id="g" overflow="visible">
   <path d="m2.0156-15.953h11.094v3.1094h-6.9844v2.9688h6.5625v3.1094h-6.5625v3.6562h7.2188v3.1094h-11.328z"/>
  </symbol>
  <symbol id="z" overflow="visible">
   <path d="m8.3906-9.7656c0.65625 0 1.1484-0.14062 1.4844-0.42188 0.33203-0.28906 0.5-0.71094 0.5-1.2656 0-0.55078-0.16797-0.97266-0.5-1.2656-0.33594-0.28906-0.82812-0.4375-1.4844-0.4375h-2.2656v3.3906zm0.14062 6.9688c0.82031 0 1.4414-0.17188 1.8594-0.51562 0.41406-0.35156 0.625-0.88281 0.625-1.5938 0-0.6875-0.21094-1.2031-0.625-1.5469-0.40625-0.34375-1.0273-0.51562-1.8594-0.51562h-2.4062v4.1719zm3.8281-5.7344c0.88281 0.25 1.5664 0.72656 2.0469 1.4219 0.48828 0.6875 0.73438 1.5312 0.73438 2.5312 0 1.543-0.52344 2.6953-1.5625 3.4531-1.043 0.75-2.625 1.125-4.75 1.125h-6.8125v-15.953h6.1719c2.207 0 3.8047 0.33984 4.7969 1.0156 1 0.66797 1.5 1.7344 1.5 3.2031 0 0.78125-0.18359 1.4492-0.54688 2-0.36719 0.54297-0.89062 0.94531-1.5781 1.2031z"/>
  </symbol>
  <symbol id="y" overflow="visible">
   <path d="m0.10938-15.953h14.688v3.1094h-5.2812v12.844h-4.1094v-12.844h-5.2969z"/>
  </symbol>
  <symbol id="x" overflow="visible">
   <path d="m2.0156-15.953h4.1094v6.0781h6.0625v-6.0781h4.1094v15.953h-4.1094v-6.7656h-6.0625v6.7656h-4.1094z"/>
  </symbol>
  <symbol id="w" overflow="visible">
   <path d="m9.2969-13.25c-1.2617 0-2.2344 0.46484-2.9219 1.3906-0.6875 0.91797-1.0312 2.2188-1.0312 3.9062 0 1.668 0.34375 2.9648 1.0312 3.8906 0.6875 0.92969 1.6602 1.3906 2.9219 1.3906 1.2578 0 2.2344-0.46094 2.9219-1.3906 0.6875-0.92578 1.0312-2.2227 1.0312-3.8906 0-1.6875-0.34375-2.9883-1.0312-3.9062-0.6875-0.92578-1.6641-1.3906-2.9219-1.3906zm0-2.9844c2.5625 0 4.5664 0.73438 6.0156 2.2031 1.457 1.4688 2.1875 3.4961 2.1875 6.0781 0 2.5742-0.73047 4.5938-2.1875 6.0625-1.4492 1.4688-3.4531 2.2031-6.0156 2.2031s-4.5742-0.73438-6.0312-2.2031c-1.4492-1.4688-2.1719-3.4883-2.1719-6.0625 0-2.582 0.72266-4.6094 2.1719-6.0781 1.457-1.4688 3.4688-2.2031 6.0312-2.2031z"/>
  </symbol>
  <symbol id="e" overflow="visible">
   <path d="m2.0156-15.953h6.8125c2.0312 0 3.5859 0.45312 4.6719 1.3594 1.0938 0.89844 1.6406 2.1797 1.6406 3.8438 0 1.6797-0.54688 2.9688-1.6406 3.875-1.0859 0.89844-2.6406 1.3438-4.6719 1.3438h-2.7031v5.5312h-4.1094zm4.1094 2.9844v4.4531h2.2656c0.80078 0 1.4141-0.19141 1.8438-0.57812 0.4375-0.38281 0.65625-0.9375 0.65625-1.6562 0-0.70703-0.21875-1.2539-0.65625-1.6406-0.42969-0.38281-1.043-0.57812-1.8438-0.57812z"/>
  </symbol>
  <symbol id="v" overflow="visible">
   <path d="m13.109-15.438v3.375c-0.875-0.39453-1.7305-0.69141-2.5625-0.89062-0.83594-0.19531-1.6211-0.29688-2.3594-0.29688-0.99219 0-1.7188 0.13672-2.1875 0.40625-0.46875 0.27344-0.70312 0.6875-0.70312 1.25 0 0.42969 0.15625 0.76172 0.46875 1 0.32031 0.24219 0.89844 0.44922 1.7344 0.625l1.75 0.34375c1.7695 0.35547 3.0312 0.89844 3.7812 1.625 0.75 0.73047 1.125 1.7617 1.125 3.0938 0 1.7617-0.52734 3.0742-1.5781 3.9375-1.043 0.85547-2.6328 1.2812-4.7656 1.2812-1.0117 0-2.0273-0.10156-3.0469-0.29688-1.0234-0.1875-2.043-0.46875-3.0625-0.84375v-3.4688c1.0195 0.53125 2.0039 0.9375 2.9531 1.2188 0.95703 0.27344 1.875 0.40625 2.75 0.40625 0.90625 0 1.5938-0.14453 2.0625-0.4375 0.47656-0.30078 0.71875-0.73438 0.71875-1.2969 0-0.48828-0.16406-0.86719-0.48438-1.1406-0.32422-0.26953-0.96875-0.51562-1.9375-0.73438l-1.5938-0.35938c-1.5938-0.33203-2.7617-0.875-3.5-1.625-0.74219-0.75-1.1094-1.7578-1.1094-3.0312 0-1.582 0.50781-2.8008 1.5312-3.6562 1.0312-0.85156 2.5078-1.2812 4.4375-1.2812 0.875 0 1.7734 0.070313 2.7031 0.20312 0.92578 0.125 1.8828 0.32422 2.875 0.59375z"/>
  </symbol>
  <symbol id="f" overflow="visible">
   <path d="m2.0156-15.953h4.1094v12.844h7.2188v3.1094h-11.328z"/>
  </symbol>
  <symbol id="u" overflow="visible">
   <path d="m9.7031-16.625v2.5156h-2.1094c-0.54297 0-0.92188 0.10156-1.1406 0.29688-0.21094 0.19922-0.3125 0.53906-0.3125 1.0156v0.82812h3.2656v2.7344h-3.2656v9.2344h-3.8281v-9.2344h-1.8906v-2.7344h1.8906v-0.82812c0-1.3008 0.36328-2.2656 1.0938-2.8906 0.72656-0.625 1.8516-0.9375 3.375-0.9375z"/>
  </symbol>
  <symbol id="d" overflow="visible">
   <path d="m7.5312-9.5156c-0.84375 0-1.4922 0.30859-1.9375 0.92188-0.44922 0.60547-0.67188 1.4805-0.67188 2.625 0 1.1484 0.22266 2.0273 0.67188 2.6406 0.44531 0.60547 1.0938 0.90625 1.9375 0.90625 0.83203 0 1.4688-0.30078 1.9062-0.90625 0.44531-0.61328 0.67188-1.4922 0.67188-2.6406 0-1.1445-0.22656-2.0195-0.67188-2.625-0.4375-0.61328-1.0742-0.92188-1.9062-0.92188zm0-2.7344c2.0508 0 3.6562 0.55859 4.8125 1.6719 1.1641 1.1055 1.75 2.6406 1.75 4.6094s-0.58594 3.5117-1.75 4.625c-1.1562 1.1055-2.7617 1.6562-4.8125 1.6562-2.0625 0-3.6797-0.55078-4.8438-1.6562-1.168-1.1133-1.75-2.6562-1.75-4.625s0.58203-3.5039 1.75-4.6094c1.1641-1.1133 2.7812-1.6719 4.8438-1.6719z"/>
  </symbol>
  <symbol id="t" overflow="visible">
   <path d="m12.922-9.9688c0.48828-0.75 1.0625-1.3164 1.7188-1.7031 0.66406-0.38281 1.3984-0.57812 2.2031-0.57812 1.375 0 2.4219 0.42969 3.1406 1.2812 0.71875 0.84375 1.0781 2.0742 1.0781 3.6875v7.2812h-3.8438v-6.2344c0.007812-0.09375 0.015625-0.1875 0.015625-0.28125v-0.4375c0-0.84375-0.125-1.457-0.375-1.8438-0.25-0.38281-0.65234-0.57812-1.2031-0.57812-0.73047 0-1.293 0.30469-1.6875 0.90625-0.38672 0.59375-0.58984 1.4609-0.60938 2.5938v5.875h-3.8438v-6.2344c0-1.3203-0.11719-2.1758-0.34375-2.5625-0.23047-0.38281-0.63672-0.57812-1.2188-0.57812-0.73047 0-1.2969 0.30469-1.7031 0.90625-0.39844 0.60547-0.59375 1.4648-0.59375 2.5781v5.8906h-3.8438v-11.969h3.8438v1.75c0.46875-0.66406 1.0039-1.1719 1.6094-1.5156 0.61328-0.34375 1.2891-0.51562 2.0312-0.51562 0.82031 0 1.5508 0.19922 2.1875 0.59375 0.63281 0.39844 1.1133 0.96094 1.4375 1.6875z"/>
  </symbol>
  <symbol id="s" overflow="visible">
   <path d="m13.859-7.2812v7.2812h-3.8438v-5.5469c0-1.0508-0.027344-1.7695-0.078125-2.1562-0.042969-0.39453-0.12109-0.6875-0.23438-0.875-0.14844-0.25-0.35156-0.44141-0.60938-0.57812-0.25-0.14453-0.54297-0.21875-0.875-0.21875-0.79297 0-1.418 0.3125-1.875 0.9375-0.46094 0.61719-0.6875 1.4648-0.6875 2.5469v5.8906h-3.8125v-16.625h3.8125v6.4062c0.58203-0.69531 1.1953-1.207 1.8438-1.5312 0.64453-0.33203 1.3594-0.5 2.1406-0.5 1.3828 0 2.4297 0.42969 3.1406 1.2812 0.71875 0.84375 1.0781 2.0742 1.0781 3.6875z"/>
  </symbol>
  <symbol id="r" overflow="visible">
   <path d="m2.0156-15.953h4.5781l5.8125 10.938v-10.938h3.8906v15.953h-4.5938l-5.7969-10.938v10.938h-3.8906z"/>
  </symbol>
  <symbol id="q" overflow="visible">
   <path d="m1.7031-4.6562v-7.3125h3.8438v1.2031c0 0.64844-0.007813 1.4609-0.015625 2.4375v1.9688c0 0.96094 0.023438 1.6523 0.078125 2.0781 0.050781 0.41797 0.13281 0.72656 0.25 0.92188 0.15625 0.25 0.35938 0.44531 0.60938 0.57812 0.25781 0.13672 0.55078 0.20312 0.875 0.20312 0.80078 0 1.4258-0.30469 1.875-0.92188 0.45703-0.61328 0.6875-1.4688 0.6875-2.5625v-5.9062h3.8281v11.969h-3.8281v-1.7344c-0.57422 0.69922-1.1836 1.2148-1.8281 1.5469-0.64844 0.33203-1.3555 0.5-2.125 0.5-1.3867 0-2.4453-0.42188-3.1719-1.2656-0.71875-0.85156-1.0781-2.0859-1.0781-3.7031z"/>
  </symbol>
  <symbol id="p" overflow="visible">
   <path d="m13.859-7.2812v7.2812h-3.8438v-5.5781c0-1.0312-0.027344-1.7383-0.078125-2.125-0.042969-0.39453-0.12109-0.6875-0.23438-0.875-0.14844-0.25-0.35156-0.44141-0.60938-0.57812-0.25-0.14453-0.54297-0.21875-0.875-0.21875-0.79297 0-1.418 0.3125-1.875 0.9375-0.46094 0.61719-0.6875 1.4648-0.6875 2.5469v5.8906h-3.8125v-11.969h3.8125v1.75c0.58203-0.69531 1.1953-1.207 1.8438-1.5312 0.64453-0.33203 1.3594-0.5 2.1406-0.5 1.3828 0 2.4297 0.42969 3.1406 1.2812 0.71875 0.84375 1.0781 2.0742 1.0781 3.6875z"/>
  </symbol>
  <symbol id="o" overflow="visible">
   <path d="m1.8438-11.969h3.8125v11.75c0 1.6016-0.38672 2.8281-1.1562 3.6719-0.76172 0.84375-1.8711 1.2656-3.3281 1.2656h-1.8906v-2.5h0.65625c0.72656 0 1.2266-0.16797 1.5-0.5 0.26953-0.32422 0.40625-0.96875 0.40625-1.9375zm0-4.6562h3.8125v3.125h-3.8125z"/>
  </symbol>
  <symbol id="n" overflow="visible">
   <path d="m11.5-11.594v3.125c-0.52344-0.35156-1.043-0.61328-1.5625-0.78125-0.52344-0.17578-1.0625-0.26562-1.625-0.26562-1.0742 0-1.9062 0.3125-2.5 0.9375s-0.89062 1.4961-0.89062 2.6094c0 1.1172 0.29688 1.9844 0.89062 2.6094s1.4258 0.9375 2.5 0.9375c0.59375 0 1.1562-0.085937 1.6875-0.26562 0.53906-0.17578 1.0391-0.44141 1.5-0.79688v3.125c-0.59375 0.23047-1.1992 0.39453-1.8125 0.5-0.61719 0.11328-1.2344 0.17188-1.8594 0.17188-2.1562 0-3.8438-0.55078-5.0625-1.6562-1.2188-1.1133-1.8281-2.6562-1.8281-4.625s0.60938-3.5039 1.8281-4.6094c1.2188-1.1133 2.9062-1.6719 5.0625-1.6719 0.625 0 1.2383 0.058594 1.8438 0.17188 0.61328 0.10547 1.2227 0.26562 1.8281 0.48438z"/>
  </symbol>
 </defs>
 <g>
  <path d="m603.87 329.51c-8.1484-6.0078-16.555-11.93-24.691-17.656-15.711-11.066-31.957-22.508-46.832-34.922-23.934-19.996-50.066-26.121-82.125-19.117-20.641 4.5156-71.379 12.07-76.043 12.785-4.3867 0.66016-8.6797-2.2656-9.6445-6.2812-5.3242-22.234-10.48-43.773-15.742-65.855-0.40234-1.6758-0.14844-2.5742 0.058593-2.8398 0.21875-0.27344 0.89453-0.29297 1.0977-0.29297 0.53125 0 1.1406 0.10156 1.8125 0.30469l2.1133 0.63281c8.9922 2.6953 18.285 5.4766 27.223 8.5625 19.449 6.6953 36.094 5.2344 52.691-4.4531 14.312-8.332 29.082-16.473 43.367-24.344 13.836-7.625 28.145-15.508 42.066-23.586 8.8438-5.1328 14.824-11.77 17.293-19.191 2.4844-7.4805 1.4141-15.547-3.0977-23.332-8.4414-14.527-24.098-17.707-42.121-8.1172-5 2.6602-53.484 28.293-72.352 39.223-8.4141 4.8711-14.984 5.5586-24.137 2.4766-20.586-6.9531-94.031-30.84-110.18-36.215-1.7344 2.5703-3.6758 4.9844-5.7188 7.3125 17.148 5.7227 92.574 30.258 113.11 37.195 11.609 3.9141 20.691 2.9531 31.316-3.1953 18.723-10.844 67.07-36.402 72.078-39.066 13.617-7.2422 24.32-5.7812 30.441 4.7812 3.2695 5.6328 4.0625 11.074 2.3672 16.18-1.7852 5.3672-6.4102 10.34-13.387 14.383-13.84 8.0273-71.035 39.547-85.445 47.938-14.391 8.3945-28.449 9.582-45.438 3.7383-9.1055-3.1445-18.488-5.9531-27.562-8.6719l-2.1172-0.63672c-5.0586-1.4961-9.668-0.35938-12.285 2.9531-2.0625 2.6094-2.6641 6.2695-1.7031 10.293 5.2617 22.082 10.422 43.625 15.742 65.859 2 8.3789 10.438 14.227 19.465 12.895 4.6562-0.71484 55.672-8.3086 76.598-12.887 29.309-6.3945 52.828-0.94531 74.652 17.285 15.148 12.645 31.543 24.191 47.398 35.359 8.0977 5.6992 16.465 11.594 24.543 17.551 13.719 10.113 17.402 22.594 9.8438 33.387-8.6211 12.352-22.203 13.043-37.559 2.4805-17.426-12.023-74.848-51.246-81.832-51.246l-0.75 0.054688c-23.352 3.4844-46.789 7.875-78.379 14.68-6.8438 1.4844-8.332 5.1875-8.6094 7.2656-0.27734 2.0586 0.17187 5.9883 6.25 9.1523 0 0 27.984 14.609 40.301 19.934 10.727 4.6562 14.762 12.012 19.277 25.738 14.418 43.996 30.34 93.82 36.809 128.27 3.2891 17.531-3.6484 20.051-19.656 24.078-2.3594 0.60156-4.4922 0.90234-6.3242 0.90234-7.8047 0-12.242-5.4141-18.973-23.172-6.5547-17.281-25.051-77.668-27.121-84.273-1.8945-6.0117-6.1211-13.641-12.324-17.02 0 0-75.379-40.957-109.04-56.973-49.402-23.52-79.332-65.594-97.043-136.42-0.67188-2.6953-1.2812-5.3984-2.0078-8.6641-0.98828-4.3398-4.1055-7.0352-8.1484-7.0352-3.1914 0-6.5469 1.6914-9.6914 4.8867-2.6445 2.6719-33.285 33.238-43.508 47.406-5.6211 7.8008-10.371 32.547-15.547 61.68-1.4336 8.0703-2.6758 15.043-3.5117 18.438-3.5 14.211-11.664 20.625-24.012 18.848-14.512-2.0664-21.027-9.1328-19.371-21.023 0.67969-4.9453 4.6914-29.5 5.5586-34.715 7.1719-43.109 30.836-86.32 64.922-118.57 17.051-16.148 32.848-34.082 48.121-51.43 1.3086-1.4883 2.6289-2.9609 3.9375-4.4492-3.2461-0.58594-6.4453-1.3711-9.5742-2.3867-0.30859 0.35156-0.62109 0.69922-0.92969 1.0508-15.145 17.199-30.805 34.984-47.57 50.855-35.438 33.531-60.062 78.539-67.535 123.49-0.64844 3.9062-4.8633 29.59-5.5977 34.949-2.3516 16.867 7.418 28.125 26.805 30.883 16.859 2.4141 29.176-6.8906 33.738-25.414 0.90625-3.6758 2.1094-10.438 3.6328-19 3.4141-19.18 9.1211-51.277 14.035-58.094 9.8008-13.594 39.969-43.684 42.637-46.379 1.3789-1.4023 2.4648-1.9883 3.0508-2.1914 0.007812 0.035156 0.015624 0.070312 0.023437 0.10938 0.73438 3.3203 1.3633 6.0977 2.0547 8.8633 12.387 49.547 35.16 110.48 101.77 142.2 33.441 15.918 108.61 56.762 108.61 56.762 3.6445 1.9805 6.7852 7.5898 8.1562 11.953 2.0664 6.5898 20.633 67.207 27.289 84.754 0.13281 0.34375 0.26172 0.67969 0.39453 1.0195-0.51172 0.83984-0.95703 1.7188-1.3281 2.6211-0.70312 1.7188-0.97266 2.2031-1.5039 2.625-0.30859-0.03125-0.62891-0.14844-1.0273-0.26172-3.8711-1.0898-11.09-3.1211-34.113 2.8594-7.9844 2.0742-15.738 4.5898-15.207 10.426 0.22656 2.4883 0.69531 7.668 26.141 9.5156 0.10938 0.019532 0.21484 0.023438 0.32031 0.023438 2.2734 0 4.1914-1.7578 4.3594-4.0586 0.17578-2.4102-1.6367-4.5039-4.0469-4.6797-4.6602-0.33594-9.4531-0.98438-13.086-1.6992 1.043-0.32031 2.2734-0.67188 3.7188-1.0469 20.742-5.3906 26.68-3.7109 29.543-2.9062 1.8477 0.51562 4.1211 1.168 7.0898-0.36719 1.5469-0.80078 2.5977-1.7969 3.4453-2.8242 4.957 10.281 11.238 17.582 22.461 17.582 2.5898 0 5.3594-0.37891 8.4609-1.1602 13.605-3.4219 28.891-7.2812 26.809-29.262 0.007813 0 0.011719 0.003906 0.015625 0.003906 2.7305 0.41797 2.7734 0.53125 3.4141 2.4531 0.76172 2.2695 1.9102 5.6992 6.4609 8.6602 6.0625 3.9531 6.1133 5.8281 6.1094 5.8438 0 0.015626-0.31641 1.5156-5.2734 3.8477-2.1875 1.0273-3.125 3.6328-2.0977 5.8203 1.0312 2.1797 3.6289 3.1289 5.8203 2.0938 2.4297-1.1445 9.832-4.6211 10.285-11.16 0.42578-6.1914-5.543-10.828-10.07-13.777-2-1.3008-2.3516-2.3594-2.9336-4.1094-1.2031-3.5938-2.9961-7.1953-10.387-8.3242-0.89844-0.13672-1.8789-0.30078-2.8711-0.46875-7-34.715-22.32-82.645-36.25-125.18-4.3203-13.129-9.1133-24.523-24.113-31.039-12.031-5.2031-39.738-19.668-39.738-19.668-0.035157-0.015625-0.0625-0.03125-0.09375-0.046875 0.085937-0.019532 0.17188-0.039063 0.26172-0.058594 31.473-6.7812 53.875-10.984 77.07-14.465 6.5977 2.4648 45.336 27.738 77.078 49.633 19.457 13.371 38.441 11.426 49.688-4.6758 10.457-14.949 5.9258-32.359-11.832-45.453z"/>
  <path d="m223.36 131.25h0.0625c35.914-0.058594 65.207-29.496 65.293-65.617 0.11719-36.582-28.367-65.41-65.258-65.633-36.457 0-65.43 28.25-65.965 64.312-0.26172 17.57 6.5508 34.301 19.168 47.113 12.598 12.781 29.184 19.824 46.699 19.824zm0.45312-122.5c31.586 0.19141 56.254 25.164 56.156 56.855-0.074218 31.32-25.449 56.84-56.559 56.891h-0.050781c-15.16 0-29.527-6.1172-40.469-17.219-10.965-11.129-16.875-25.633-16.648-40.844 0.46094-31.227 25.59-55.688 57.57-55.684z"/>
  <path d="m252.67 367.63-52.492 13.125c-2.3438 0.58594-3.7734 2.9609-3.1836 5.3047 0.49609 1.9883 2.2812 3.3164 4.2422 3.3164 0.35156 0 0.71094-0.039062 1.0625-0.12891l52.492-13.125c2.3438-0.58594 3.7734-2.9609 3.1836-5.3047-0.58594-2.3438-2.9648-3.7773-5.3047-3.1875z"/>
  <path d="m263.15 461.66c0.64062 0.32812 1.3242 0.48438 1.9961 0.48438 1.5898 0 3.1172-0.86328 3.8945-2.375l23.086-44.906c1.1016-2.1484 0.25781-4.7852-1.8945-5.8906-2.1602-1.1133-4.7852-0.26172-5.8867 1.8906l-23.09 44.906c-1.0977 2.1484-0.25391 4.7852 1.8945 5.8906z"/>
  <path d="m255.4 399.27-40.293 30.066c-1.9414 1.4453-2.3359 4.1836-0.89453 6.1211 0.85938 1.1523 2.1797 1.7578 3.5117 1.7578 0.91016 0 1.8281-0.28125 2.6094-0.87109l40.293-30.066c1.9414-1.4453 2.3359-4.1836 0.89453-6.1211-1.4414-1.9336-4.1914-2.332-6.1211-0.88672z"/>
  <path d="m531.74 87.039c0.62891 0.3125 1.293 0.46094 1.9531 0.46094 1.6055 0 3.1484-0.88281 3.918-2.418l21.875-43.75c1.082-2.1602 0.20703-4.7891-1.957-5.8711-2.1562-1.0781-4.7852-0.20703-5.8711 1.957l-21.875 43.75c-1.082 2.1641-0.20312 4.7891 1.957 5.8711z"/>
  <path d="m482.08 85.75c0.85938 1.1445 2.168 1.75 3.5 1.75 0.91406 0 1.832-0.28516 2.6211-0.875 1.9336-1.4492 2.3281-4.1914 0.875-6.125l-26.246-35c-1.4492-1.9297-4.1914-2.3281-6.1211-0.875-1.9336 1.4492-2.3281 4.1914-0.875 6.125z"/>
  <path d="m510.32 83.125c0.097657 0 0.19141-0.003906 0.28906-0.007812 2.4102-0.15625 4.2383-2.2422 4.082-4.6523l-2.8711-43.75c-0.15625-2.4141-2.2461-4.2344-4.6523-4.082-2.4102 0.15625-4.2383 2.2422-4.082 4.6523l2.8711 43.75c0.15234 2.3164 2.0781 4.0898 4.3633 4.0898z"/>
  <path d="m332.47 341.25c0 5.832-8.7461 5.832-8.7461 0s8.7461-5.832 8.7461 0"/>
  <path d="m74.375 494.38h332.46c2.4141 0 4.3711-1.9609 4.3711-4.375s-1.957-4.375-4.3711-4.375h-332.46c-2.418 0-4.375 1.9609-4.375 4.375s1.957 4.375 4.375 4.375z"/>
  <path d="m371.84 503.12h-297.46c-2.418 0-4.375 1.9609-4.375 4.375s1.957 4.375 4.375 4.375h297.46c2.418 0 4.375-1.9609 4.375-4.375s-1.957-4.375-4.375-4.375z"/>
  <path d="m371.84 520.62h-297.46c-2.418 0-4.375 1.9609-4.375 4.375s1.957 4.375 4.375 4.375h297.46c2.418 0 4.375-1.9609 4.375-4.375s-1.957-4.375-4.375-4.375z"/>
  <path d="m235.43 205.7c-2.375 0.44531-3.9375 2.7305-3.5 5.1016 0.69922 3.7422 17.746 91.977 72 125.42 0.71484 0.44141 1.5078 0.65234 2.2891 0.65234 1.4688 0 2.9023-0.73828 3.7305-2.0781 1.2656-2.0586 0.62891-4.7539-1.4297-6.0195-50.934-31.398-67.82-118.7-67.984-119.58-0.44922-2.3711-2.7383-3.9453-5.1055-3.4961z"/>
  <use x="70" y="625.625" xlink:href="#h"/>
  <use x="86.054688" y="625.625" xlink:href="#c"/>
  <use x="96.839844" y="625.625" xlink:href="#a"/>
  <use x="111.679687" y="625.625" xlink:href="#m"/>
  <use x="126.4375" y="625.625" xlink:href="#b"/>
  <use x="136.894531" y="625.625" xlink:href="#a"/>
  <use x="151.730469" y="625.625" xlink:href="#l"/>
  <use x="175.007812" y="625.625" xlink:href="#k"/>
  <use x="190.664062" y="625.625" xlink:href="#j"/>
  <use x="212.539062" y="625.625" xlink:href="#i"/>
  <use x="236.667969" y="625.625" xlink:href="#g"/>
  <use x="251.613281" y="625.625" xlink:href="#z"/>
  <use x="268.285156" y="625.625" xlink:href="#y"/>
  <use x="283.207031" y="625.625" xlink:href="#g"/>
  <use x="298.148438" y="625.625" xlink:href="#h"/>
  <use x="314.203125" y="625.625" xlink:href="#x"/>
  <use x="332.511719" y="625.625" xlink:href="#w"/>
  <use x="351.105469" y="625.625" xlink:href="#e"/>
  <use x="367.140625" y="625.625" xlink:href="#v"/>
  <use x="390.507812" y="625.625" xlink:href="#f"/>
  <use x="404.449219" y="625.625" xlink:href="#f"/>
  <use x="418.386719" y="625.625" xlink:href="#e"/>
  <use x="70" y="647.5" xlink:href="#u"/>
  <use x="79.515625" y="647.5" xlink:href="#c"/>
  <use x="90.304688" y="647.5" xlink:href="#d"/>
  <use x="105.332031" y="647.5" xlink:href="#t"/>
  <use x="135.742188" y="647.5" xlink:href="#b"/>
  <use x="146.199219" y="647.5" xlink:href="#s"/>
  <use x="161.773438" y="647.5" xlink:href="#a"/>
  <use x="184.222656" y="647.5" xlink:href="#r"/>
  <use x="202.53125" y="647.5" xlink:href="#d"/>
  <use x="217.558594" y="647.5" xlink:href="#q"/>
  <use x="233.132812" y="647.5" xlink:href="#p"/>
  <use x="256.320312" y="647.5" xlink:href="#e"/>
  <use x="272.355469" y="647.5" xlink:href="#c"/>
  <use x="283.140625" y="647.5" xlink:href="#d"/>
  <use x="298.171875" y="647.5" xlink:href="#o"/>
  <use x="305.667969" y="647.5" xlink:href="#a"/>
  <use x="320.503906" y="647.5" xlink:href="#n"/>
  <use x="333.472656" y="647.5" xlink:href="#b"/>
 </g>
</svg>
