<?xml version="1.0" encoding="UTF-8"?>
<svg width="700pt" height="700pt" version="1.1" viewBox="0 0 700 700" xmlns="http://www.w3.org/2000/svg">
 <g>
  <path d="m368.38 162.43c-3.5-39.285-42.367-85.785-85.891-85.785s-82.371 46.5-85.891 85.785c-13.281 1.8906-23.574 13.246-23.574 27.039 0 12.723 8.7148 23.309 20.457 26.426 0.085938 1.8359 0.12109 3.5859 0.24609 5.5312-3.1133 3.8164-5.4414 9.1172-6.4062 15.664-2.1875 14.961 2.5547 32.129 15.418 39.41 5.8789 19.758 15.262 38.113 30.203 49.191 15.191 11.234 32.953 22.715 49.543 22.715 16.59 0 34.352-11.48 49.543-22.715 14.945-11.078 24.324-29.434 30.223-49.191 12.863-7.2812 17.605-24.43 15.418-39.41-0.96094-6.5273-3.2891-11.828-6.4062-15.664 0.12109-1.9414 0.15625-3.6914 0.24609-5.5312 11.727-3.1133 20.457-13.703 20.457-26.426-0.011719-13.789-10.285-25.129-23.586-27.039zm-85.891-73.621c38.324 0 69.879 42.141 73.691 73.254h-147.37c3.8008-31.113 35.367-73.254 73.676-73.254zm42.316 227.1c-13.578 10.047-29.242 20.316-42.297 20.316-13.055 0-28.719-10.273-42.297-20.316-10.727-7.9453-18.043-20.984-23.188-35.438 14.98 1.6094 33.18-2.0117 46.777-5.3359 7.4375-1.8359 14.473-3.5508 18.707-3.5508 4.2539 0 11.289 1.7148 18.727 3.5508 11.059 2.6953 24.832 6.0898 38.098 6.0898 2.9922 0 5.8438-0.21094 8.6094-0.54297-5.1836 14.332-12.461 27.316-23.137 35.227zm28.559-48.703c-4.0938 1.2266-8.8359 1.8359-14.051 1.8359-11.797 0-24.219-3.0469-35.211-5.7383-8.5234-2.082-15.906-3.9023-21.613-3.9023-5.7031 0-13.09 1.8203-21.613 3.9023-10.973 2.6953-23.414 5.7383-35.211 5.7383-5.2148 0-9.9414-0.61328-14.051-1.8359-10.203-3.0781-13.949-16.887-12.266-28.332 1.0508-7.1914 3.9531-11.797 6.9648-11.496 17.5 5.0039 72.398 18.34 74.727 18.918 0.94531 0.21094 1.9258 0.21094 2.8867 0 2.3281-0.57812 57.227-13.914 75.531-19.039 2.1523 0 5.1094 4.4453 6.1602 11.621 1.6953 11.441-2.0508 25.25-12.254 28.328zm-139.23-50.293h136.71c-18.848 5.1094-60.129 15.191-68.355 17.184-8.2227-1.9961-49.508-12.074-68.355-17.184zm150.39-12.164h-164.06c-8.418 0-15.262-6.8594-15.262-15.277 0-8.3984 6.8438-15.262 15.262-15.262h164.06c8.418 0 15.277 6.8594 15.277 15.262-0.015625 8.4336-6.8594 15.277-15.277 15.277z"/>
  <path d="m240.24 261.48c17.219-4.1289 23.066-10.5 23.066-10.5s-39.707-12.266-46.129-12.266c-6.4219 0.015625-1.2266 28.629 23.062 22.766z"/>
  <path d="m347.8 238.73c-6.4062 0-46.129 12.266-46.129 12.266s5.8281 6.3516 23.066 10.5c24.285 5.8477 29.484-22.766 23.062-22.766z"/>
  <path d="m580.05 444.15-80.148-80.133c-10.465-10.484-25.531-14.543-39.762-12.582l-35.297-35.332c21.859-29.906 33.828-65.766 33.828-103.6 0-47.129-18.305-91.402-51.555-124.65-33.285-33.285-77.543-51.609-124.69-51.609-47.059 0-91.297 18.324-124.6 51.609-68.723 68.738-68.723 180.57 0 249.3 33.285 33.285 77.559 51.609 124.64 51.609 37.801 0 73.676-12.004 103.62-33.879l34.93 34.93c-2.1875 14.211 2.0469 29.227 12.949 40.129l80.148 80.148c8.8008 8.7852 20.512 13.633 32.969 13.633 12.441 0 24.168-4.8477 32.953-13.633 18.203-18.164 18.203-47.758 0.019532-65.941zm-413.59-115.59c-64-63.996-64-168.11-0.019532-232.09 30.992-30.992 72.188-48.055 116.09-48.055 43.801 0 85.016 17.062 115.99 48.055 30.957 30.941 47.984 72.152 47.984 116.04s-17.047 85.086-47.984 116.04c-30.992 30.992-72.188 48.074-116.04 48.074-43.832-0.019531-85.047-17.082-116.02-48.074zm229.36 18.848c3.8672-3.2734 7.6836-6.6484 11.305-10.273 3.6211-3.6211 6.9844-7.4219 10.254-11.305l29.469 29.504c-4.6914 2.1367-9.1172 4.918-12.863 8.6797-3.7969 3.7969-6.6133 8.1719-8.8203 12.758zm175.64 154.09c-13.004 12.984-35.719 12.984-48.738 0l-80.148-80.148c-13.422-13.441-13.422-35.316 0-48.738 6.5117-6.4922 15.172-10.078 24.379-10.078 9.2031 0 17.867 3.5859 24.379 10.078l80.148 80.148c13.422 13.441 13.422 35.316-0.019531 48.738z"/>
 </g>
</svg>
